<svg width="100%" height="100%" viewBox="0 0 670 444" version="1.1" xmlns="http://www.w3.org/2000/svg" xmlns:xlink="http://www.w3.org/1999/xlink" xml:space="preserve" xmlns:serif="http://www.serif.com/" style="fill-rule:evenodd;clip-rule:evenodd;stroke-linecap:round;stroke-linejoin:round;stroke-miterlimit:1.5;">
    <g id="Artboard1" transform="matrix(1.64186,0,0,1,0,0)">
        <rect x="0" y="0" width="408.073" height="443.458" style="fill:none;"/>
        <clipPath id="_clip1">
            <rect x="0" y="0" width="408.073" height="443.458"/>
        </clipPath>
        <g clip-path="url(#_clip1)">
            <g id="red-rect" transform="matrix(0.609065,0,0,1,-194.649,-103.045)">
                <path d="M512,124.191C512,112.52 502.525,103.045 490.854,103.045L340.733,103.045C329.062,103.045 319.587,112.52 319.587,124.191L319.587,525.357C319.587,537.028 329.062,546.503 340.733,546.503L490.854,546.503C502.525,546.503 512,537.028 512,525.357L512,124.191Z" style="fill:rgb(255,0,0);"/>
                <clipPath id="_clip2">
                    <path d="M512,124.191C512,112.52 502.525,103.045 490.854,103.045L340.733,103.045C329.062,103.045 319.587,112.52 319.587,124.191L319.587,525.357C319.587,537.028 329.062,546.503 340.733,546.503L490.854,546.503C502.525,546.503 512,537.028 512,525.357L512,124.191Z"/>
                </clipPath>
                <g clip-path="url(#_clip2)">
                    <g id="green-rect" transform="matrix(1,0,0,0.899497,0,54.9249)">
                        <rect x="319.587" y="300" width="192.413" height="246.503" style="fill:rgb(4,206,0);"/>
                    </g>
                </g>
            </g>
            <g id="red-lb" transform="matrix(0.609065,0,0,1,-214.823,43.9484)">
                <text x="415.794px" y="70.839px" style="font-family:'ArialMT', 'Arial', sans-serif;font-size:33.433px;">50%</text>
            </g>
            <g id="red-desc" transform="matrix(0.609065,0,0,1,-129.644,50.7551)">
                <text x="415.794px" y="70.839px" style="font-family:'ArialMT', 'Arial', sans-serif;font-size:33.433px;">Beispieltext1</text>
            </g>
            <g id="green-desc" transform="matrix(0.609065,0,0,1,-125.541,273.484)">
                <text x="415.794px" y="70.839px" style="font-family:'ArialMT', 'Arial', sans-serif;font-size:33.433px;">Beispieltext2</text>
            </g>
            <g id="green-lb" transform="matrix(0.609065,0,0,1,-214.823,273.484)">
                <text x="415.794px" y="70.839px" style="font-family:'ArialMT', 'Arial', sans-serif;font-size:33.433px;">50%</text>
            </g>
            <g id="mid-line" transform="matrix(0.558742,0,0,0.0263247,-247.77,212.234)">
                <rect x="673.511" y="360.697" width="54.503" height="37.987" style="fill:rgb(4,206,0);stroke:black;stroke-width:5.35px;"/>
            </g>
            <g id="red-line" transform="matrix(0.558742,0,0,0.0263247,-247.77,-9.49524)">
                <rect x="673.511" y="360.697" width="54.503" height="37.987" style="fill:rgb(4,206,0);stroke:black;stroke-width:5.35px;"/>
            </g>
            <g id="green-line" transform="matrix(0.558742,0,0,0.0263247,-247.77,432.963)">
                <rect x="673.511" y="360.697" width="54.503" height="37.987" style="fill:rgb(4,206,0);stroke:black;stroke-width:5.35px;"/>
            </g>
        </g>
    </g>
</svg>
